<svg width="372" height="372" viewBox="0 0 372 372" fill="none" xmlns="http://www.w3.org/2000/svg">
<path d="M337.125 58.125H34.875C28.4449 58.125 23.25 63.3199 23.25 69.75V302.25C23.25 308.68 28.4449 313.875 34.875 313.875H337.125C343.555 313.875 348.75 308.68 348.75 302.25V69.75C348.75 63.3199 343.555 58.125 337.125 58.125ZM122.789 110.438C135.613 110.438 146.039 120.864 146.039 133.688C146.039 146.511 135.613 156.938 122.789 156.938C109.965 156.938 99.5391 146.511 99.5391 133.688C99.5391 120.864 109.965 110.438 122.789 110.438ZM309.479 269.228C308.95 269.672 308.281 269.917 307.59 269.918H64.3734C62.775 269.918 61.4672 268.61 61.4672 267.012C61.4672 266.321 61.7215 265.668 62.1574 265.123L124.024 191.74C125.041 190.505 126.894 190.359 128.129 191.377C128.238 191.486 128.384 191.595 128.493 191.74L164.603 234.607L222.038 166.492C223.055 165.257 224.907 165.111 226.143 166.129C226.252 166.237 226.397 166.346 226.506 166.492L309.915 265.159C310.86 266.358 310.714 268.211 309.479 269.228Z" fill="#777E91"/>
</svg>
